# xmcd
#
# Track frame offsets:
#	150
#	13798
#	33679
#	50349
#	68444
#	85222
#	98703
#	112331
#	132218
#	148881
#	167002
#	183748
#
# Disc length: 2629 seconds
#
# Revision: 1
# Processed by: cddbd v1.5.2PL0 Copyright (c) Steve Scherf et al.
# Submitted via: audiograbber 1.83.01
#
DISCID=aa0a430c
DTITLE=Various Artist - CB20413
DYEAR=1900
DGENRE=Country
TTITLE0=Terri Clark (Vocal) - I Wanna Do It All
TTITLE1=Sara Evans (Vocal) - Backseat of a Greyhound Bus
TTITLE2=Trick Pony (Vocal) - A Boy Like You
TTITLE3=Jennifer Hanson (Vocal) - Half A Heart Tattoo
TTITLE4=Tanya Tucker (Vocal) - Old Weakness (Coming On Strong)
TTITLE5=Memarie (Vocal) - I Need A Change
TTITLE6=Terri Clark  - I Wanna Do It All
TTITLE7=Sara Evans  - Backseat of a Greyhound Bus
TTITLE8=Trick Pony  - A Boy Like You
TTITLE9=Jennifer Hanson - Half A Heart Tattoo
TTITLE10=Tanya Tucker - Old Weakness (Coming On Strong)
TTITLE11=Memarie  - I Need A Change
EXTD=
EXTT0=
EXTT1=
EXTT2=
EXTT3=
EXTT4=
EXTT5=
EXTT6=
EXTT7=
EXTT8=
EXTT9=
EXTT10=
EXTT11=
PLAYORDER=
